# xmcd CD database file
#
# Track frame offsets:
#	182
#	16182
#	32420
#	53410
#	71652
#	91905
#
# Disc length: 1448 seconds
#
# Revision: 0
# Processed by: cddbd v1.5.1PL0 Copyright (c) Steve Scherf et al.
# Submitted via: CDex 1.50
#
DISCID=3a05a606
DTITLE=Back To Blue - All Tangled Up
DYEAR=1997
DGENRE=Blues
TTITLE0=Such a long time
TTITLE1=Just another day
TTITLE2=All tangled up
TTITLE3=Seeing is beleiving
TTITLE4=Back to blue
TTITLE5=Highway of fools
EXTD=YEAR: 1997
EXTT0=
EXTT1=
EXTT2=
EXTT3=
EXTT4=
EXTT5=
PLAYORDER=
